<svg width="60" height="36" viewBox="0 0 60 36" fill="none" xmlns="http://www.w3.org/2000/svg">
<path d="M36.8605 17.5535C36.8605 20.1437 36.4122 22.5347 35.5156 24.7264C34.5858 26.9181 33.2907 28.8275 31.6303 30.4547C29.9699 32.0487 28.0107 33.2939 25.7526 34.1906C23.4612 35.0872 20.9706 35.5355 18.2809 35.5355C15.591 35.5355 13.1336 35.1038 10.9088 34.2404C8.68386 33.3438 6.75783 32.0985 5.13058 30.5045C3.4702 28.8774 2.20832 26.9679 1.34495 24.7762C0.448366 22.5845 0 20.1769 0 17.5535C0 14.5981 0.581152 11.9415 1.74346 9.5837C2.87248 7.19273 4.48308 5.25013 6.57518 3.75575C8.634 2.22822 11.0582 1.29842 13.8477 0.966344V8.43804C11.2906 8.86976 9.36458 9.91578 8.06949 11.5762C6.74118 13.2365 6.07703 15.2124 6.07703 17.5038C6.07703 19.5294 6.55854 21.3226 7.52155 22.8833C8.48457 24.4109 9.87931 25.6064 11.7058 26.4698C13.4989 27.3332 15.674 27.7649 18.231 27.7649C20.8212 27.7649 23.0627 27.3332 24.9556 26.4698C26.8152 25.5732 28.2598 24.3445 29.2892 22.7838C30.2854 21.223 30.7835 19.4298 30.7835 17.4041C30.7835 15.2456 30.136 13.3362 28.8409 11.6758C27.5458 10.0154 25.6197 8.93619 23.0627 8.43804V0.866699C25.8522 1.29842 28.293 2.27801 30.385 3.80561C32.4439 5.33313 34.0378 7.2758 35.1669 9.63356C36.296 11.9912 36.8605 14.6313 36.8605 17.5535Z" fill="#191920"/>
<path d="M54.8031 17.2609L38.6642 0.026123H28.4528L45.4883 17.2609H54.8031ZM37.8671 35.8904L46.3849 26.5756L50.6438 21.9182L52.3623 20.0005L54.9027 17.2609H45.4883L27.4565 35.8904H37.8671Z" fill="#191920"/>
<path d="M60.0002 0H52.3408V35.8664H60.0002V0Z" fill="#191920"/>
</svg>
