<svg width="1226" height="1226" viewBox="0 0 1226 1226" fill="none" xmlns="http://www.w3.org/2000/svg">
<circle cx="612.941" cy="612.941" r="612.941" fill="#00173B"/>
<path d="M705.498 604.346C705.498 639.516 699.411 671.981 687.237 701.74C674.612 731.5 657.027 757.426 634.482 779.52C611.937 801.164 585.334 818.072 554.673 830.247C523.56 842.421 489.743 848.508 453.22 848.508C416.697 848.508 383.331 842.646 353.12 830.923C322.91 818.749 296.758 801.84 274.664 780.197C252.119 758.103 234.985 732.176 223.261 702.417C211.087 672.657 205 639.967 205 604.346C205 564.216 212.891 528.144 228.672 496.13C244.003 463.665 265.871 437.288 294.278 416.997C322.234 396.256 355.15 383.631 393.025 379.122V480.574C358.306 486.436 332.154 500.639 314.569 523.184C296.533 545.729 287.515 572.558 287.515 603.67C287.515 631.175 294.053 655.523 307.129 676.715C320.205 697.457 339.143 713.689 363.942 725.412C388.291 737.136 417.825 742.998 452.544 742.998C487.714 742.998 518.15 737.136 543.851 725.412C569.101 713.238 588.715 696.555 602.693 675.363C616.22 654.17 622.984 629.822 622.984 602.317C622.984 573.008 614.191 547.082 596.606 524.537C579.021 501.992 552.869 487.338 518.15 480.574V377.769C556.025 383.631 589.166 396.932 617.573 417.674C645.529 438.415 667.172 464.793 682.503 496.807C697.833 528.82 705.498 564.667 705.498 604.346Z" fill="white"/>
<path d="M949.125 600.373L729.988 366.356H591.337L822.648 600.373H949.125ZM719.167 853.327L834.822 726.85L892.65 663.611L915.984 637.572L950.478 600.373H822.648L577.81 853.327H719.167Z" fill="white"/>
<rect x="915.687" y="366" width="104" height="487" fill="white"/>
</svg>
